{"title":"The Smurfs 2 2013 CAM READNFO x264 AC3-KiSSMYACE","uid":8780361,"size":1373316601,"categoryP":"video","categoryS":"movies","magnet":"?xt=urn:btih:bfbdcb5b5ba98640efbc521584f287de26875fda&amp;dn=The+Smurfs+2+2013+CAM+READNFO+x264+AC3-KiSSMYACE&amp;tr=udp%3A%2F%2Ftracker.openbittorrent.com%3A80&amp;tr=udp%3A%2F%2Fopen.demonii.com%3A1337&amp;tr=udp%3A%2F%2Ftracker.coppersurfer.tk%3A6969&amp;tr=udp%3A%2F%2Fexodus.desync.com%3A6969","seeders":1,"leechers":0,"uploader":"srkfan","files":2,"time":1375696511,"description":"SilverTorrent - Clean And Verified Torrents Download\n\n------------------------------------------------------\n &lt;a href=&quot;\nhttp://leetleech.org/images/15429076009475805951.jpg&quot; rel=&quot;nofollow&quot; target=&quot;_NEW&quot;&gt;\nhttp://leetleech.org/images/15429076009475805951.jpg&lt;/a&gt;\n\nThe Smurfs 2 2013 CAM READNFO x264 AC3-KiSSMYACE\n\niMDB &lt;a href=&quot; http://www.imdb.com/title/tt2017020/&quot; rel=&quot;nofollow&quot; target=&quot;_NEW&quot;&gt; http://www.imdb.com/title/tt2017020/&lt;/a&gt;\n\nSource  Video The.Smurfs.2.2013.D.TS.RUS.XviD-INTERCINEMA / Audio VAiN  -  cheers to both ;)\nNotes - Took vid and played a bit with it, cam remember, kiddies will enjoy, audio just swiped aud from VAiN's rip, \nmade it ac3 and muxed to our encode Enjoy something FREE\n\nMedia Info\nThe Smurfs 2 2013 CAM READNFO x264 AC3-KiSSMYACE.mp4\nFormat                                   : MPEG-4\nFormat profile                           : Base Media\nCodec ID                                 : isom\nFile size                                : 1.28 GiB\nDuration                                 : 1h 37mn\nOverall bit rate mode                    : Variable\nOverall bit rate                         : 1 885 Kbps\nEncoded date                             : UTC 2013-08-04 19:28:59\nTagged date                              : UTC 2013-08-04 19:28:59\n\nVideo\nID                                       : 1\nFormat                                   : AVC\nFormat/Info                              : Advanced Video Codec\nFormat profile                           : &lt;a class=&quot;__cf_email__&quot; href=&quot;/cdn-cgi/l/email-protection&quot; data-cfemail=&quot;df97b6b8b79f93ebf1ee&quot;&gt;[email&amp;#160;protected]&lt;/a&gt;&lt;script cf-hash='f9e31' type=&quot;text/javascript&quot;&gt;\n/* &lt;![CDATA[ */!function(){try{var t=&quot;currentScript&quot;in document?document.currentScript:function(){for(var t=document.getElementsByTagName(&quot;script&quot;),e=t.length;e--;)if(t[e].getAttribute(&quot;cf-hash&quot;))return t[e]}();if(t&amp;&amp;t.previousSibling){var e,r,n,i,c=t.previousSibling,a=c.getAttribute(&quot;data-cfemail&quot;);if(a){for(e=&quot;&quot;,r=parseInt(a.substr(0,2),16),n=2;a.length-n;n+=2)i=parseInt(a.substr(n,2),16)^r,e+=String.fromCharCode(i);e=document.createTextNode(e),c.parentNode.replaceChild(e,c)}}}catch(u){}}();/* ]]&gt; */&lt;/script&gt;\nFormat settings, CABAC                   : Yes\nFormat settings, ReFrames                : 3 frames\nCodec ID                                 : avc1\nCodec ID/Info                            : Advanced Video Coding\nDuration                                 : 1h 37mn\nBit rate mode                            : Variable\nBit rate                                 : 1 753 Kbps\nMaximum bit rate                         : 40.0 Mbps\nWidth                                    : 640 pixels\nHeight                                   : 336 pixels\nDisplay aspect ratio                     : 1.905\nFrame rate mode                          : Constant\nFrame rate                               : 29.970 fps\nColor space                              : YUV\nChroma subsampling                       : 4:2:0\nBit depth                                : 8 bits\nScan type                                : Progressive\nBits/(Pixel*Frame)                       : 0.272\nStream size                              : 1.19 GiB (93%)\nTitle                                    : The Smurfs 2 2013 CAM READNFO x264 AC3-KiSSMYACE\nWriting library                          : x264 core 135 r2345 f0c1c53\n\nAudio\nID                                       : 2\nFormat                                   : AC-3\nFormat/Info                              : Audio Coding 3\nMode extension                           : CM (complete main)\nFormat settings, Endianness              : Big\nCodec ID                                 : ac-3\nDuration                                 : 1h 37mn\nBit rate mode                            : Constant\nBit rate                                 : 128 Kbps\nChannel(s)                               : 2 channels\nChannel positions                        : Front: L R\nSampling rate                            : 44.1 KHz\nBit depth                                : 16 bits\nCompression mode                         : Lossy\nStream size                              : 88.9 MiB (7%)\nTitle                                    : 2.0\nLanguage                                 : English\n\nScreens\n\n\n &lt;a href=&quot;\nhttp://i.imgur.com/9BQDNqP.png&quot; rel=&quot;nofollow&quot; target=&quot;_NEW&quot;&gt;\nhttp://i.imgur.com/9BQDNqP.png&lt;/a&gt; &lt;a href=&quot;\nhttp://i.imgur.com/bYdsZNR.png&quot; rel=&quot;nofollow&quot; target=&quot;_NEW&quot;&gt;\nhttp://i.imgur.com/bYdsZNR.png&lt;/a&gt; &lt;a href=&quot;\nhttp://i.imgur.com/4NHl38v.png&quot; rel=&quot;nofollow&quot; target=&quot;_NEW&quot;&gt;\nhttp://i.imgur.com/4NHl38v.png&lt;/a&gt;","torrent":{"xt":"urn:btih:bfbdcb5b5ba98640efbc521584f287de26875fda","amp;dn":"The+Smurfs+2+2013+CAM+READNFO+x264+AC3-KiSSMYACE","amp;tr":["udp%3A%2F%2Ftracker.openbittorrent.com%3A80","udp%3A%2F%2Fopen.demonii.com%3A1337","udp%3A%2F%2Ftracker.coppersurfer.tk%3A6969","udp%3A%2F%2Fexodus.desync.com%3A6969"],"infoHash":"bfbdcb5b5ba98640efbc521584f287de26875fda","infoHashBuffer":{"type":"Buffer","data":[191,189,203,91,91,169,134,64,239,188,82,21,132,242,135,222,38,135,95,218]},"announce":[],"urlList":[]}}